<?xml version="1.0" standalone="no"?>
<!DOCTYPE svg PUBLIC "-//W3C//DTD SVG 20010904//EN"
 "http://www.w3.org/TR/2001/REC-SVG-20010904/DTD/svg10.dtd">
<svg version="1.0" xmlns="http://www.w3.org/2000/svg"
 width="1024.000000pt" height="1024.000000pt" viewBox="0 0 1024.000000 1024.000000"
 preserveAspectRatio="xMidYMid meet">

<g transform="translate(0.000000,1024.000000) scale(0.100000,-0.100000)"
fill="#000000" stroke="none">
<path d="M4835 8284 c-16 -2 -70 -9 -120 -15 -257 -31 -586 -118 -831 -220
-1138 -472 -1942 -1544 -2035 -2711 -14 -179 -6 -551 16 -718 65 -503 244
-978 526 -1395 211 -311 529 -634 822 -835 461 -315 931 -494 1492 -566 191
-25 578 -25 755 0 337 47 560 104 845 218 595 236 1092 626 1463 1148 239 337
422 767 506 1190 53 262 61 355 61 675 -1 261 -4 317 -23 433 -48 289 -113
521 -217 773 -374 901 -1144 1597 -2095 1893 -308 95 -513 126 -870 131 -146
2 -278 1 -295 -1z m645 -313 c419 -67 805 -213 1160 -440 558 -356 969 -848
1193 -1431 227 -589 259 -1187 97 -1831 -123 -488 -371 -919 -742 -1291 -300
-300 -648 -526 -1056 -686 -351 -138 -787 -214 -1147 -198 -750 32 -1465 345
-1990 871 -77 77 -167 174 -200 215 -341 429 -534 874 -621 1430 -15 92 -19
177 -19 425 0 341 5 397 61 647 117 529 367 987 759 1387 484 496 1067 802
1715 900 197 30 185 29 435 26 168 -3 264 -9 355 -24z"/>
<path d="M4995 7088 c-42 -23 -146 -121 -865 -813 -1177 -1132 -1096 -1051
-1110 -1106 -21 -77 -4 -108 133 -248 157 -158 187 -181 244 -181 51 0 99 18
148 55 l34 27 3 -759 c3 -838 -1 -782 68 -848 l31 -30 490 -3 c545 -3 527 -5
571 65 l23 38 3 563 3 562 319 0 320 0 0 -561 c0 -622 -1 -608 65 -649 31 -19
49 -20 522 -20 l490 0 34 23 c19 12 44 42 57 67 l22 44 0 760 0 760 38 -36
c20 -20 47 -41 59 -47 30 -15 97 -14 136 3 18 7 96 76 174 152 152 149 164
169 149 248 -10 51 -52 97 -381 416 l-304 295 0 433 c-1 404 -2 435 -20 470
-48 93 -79 102 -363 102 -214 0 -235 -2 -274 -21 -65 -31 -94 -96 -94 -212 l0
-89 -262 257 c-145 141 -280 265 -300 276 -42 21 -131 25 -163 7z m768 -1463
l497 -479 0 -823 0 -823 -260 0 -260 0 0 543 0 543 -22 44 c-13 24 -36 53 -51
64 -28 21 -41 21 -571 24 l-542 2 -34 -22 c-19 -13 -43 -39 -54 -58 -20 -33
-21 -48 -18 -325 2 -159 0 -408 -4 -553 l-6 -262 -262 2 -261 3 -3 816 -2 815
162 160 c171 168 265 259 728 707 l285 275 90 -86 c50 -48 314 -303 588 -567z"/>
</g>
</svg>
